# vtk DataFile Version 1.0
Cube
ASCII

DATASET POLYDATA
POINTS 616 float
7.588184 7.588184 5.344736
18.277656 18.277656 20.521104
18.277656 18.277656 5.344736
7.588184 7.588184 20.521104
18.277656 7.588184 20.521104
7.588184 18.277656 5.344736
7.588184 18.277656 20.521104
18.277656 7.588184 5.344736
5.344736 7.588184 7.588184
20.521104 18.277656 18.277656
5.344736 18.277656 18.277656
20.521104 7.588184 7.588184
20.521104 18.277656 7.588184
5.344736 7.588184 18.277656
20.521104 7.588184 18.277656
5.344736 18.277656 7.588184
7.588184 5.344736 7.588184
18.277656 20.521104 18.277656
18.277656 5.344736 18.277656
7.588184 20.521104 7.588184
7.588184 20.521104 18.277656
18.277656 5.344736 7.588184
18.277656 20.521104 7.588184
7.588184 5.344736 18.277656
5.344736 20.521104 20.521104
20.521104 5.344736 5.344736
5.344736 5.344736 5.344736
20.521104 20.521104 20.521104
20.521104 5.344736 20.521104
5.344736 20.521104 5.344736
20.521104 20.521104 5.344736
5.344736 5.344736 20.521104
6.466460 6.466460 6.466460
19.399380 19.399380 19.399380
19.399380 19.399380 6.466460
6.466460 6.466460 19.399380
19.399380 6.466460 19.399380
6.466460 19.399380 6.466460
6.466460 19.399380 19.399380
19.399380 6.466460 6.466460
7.269387 9.475899 5.663533
18.596453 16.389941 20.202307
18.596453 16.389941 5.663533
7.269387 9.475899 20.202307
18.596453 9.475899 20.202307
7.269387 16.389941 5.663533
7.269387 16.389941 20.202307
18.596453 9.475899 5.663533
5.663533 7.269387 9.475899
20.202307 18.596453 16.389941
5.663533 18.596453 16.389941
20.202307 7.269387 9.475899
20.202307 18.596453 9.475899
5.663533 7.269387 16.389941
20.202307 7.269387 16.389941
5.663533 18.596453 9.475899
9.475899 5.663533 7.269387
16.389941 20.202307 18.596453
16.389941 5.663533 18.596453
9.475899 20.202307 7.269387
9.475899 20.202307 18.596453
16.389941 5.663533 7.269387
16.389941 20.202307 7.269387
9.475899 5.663533 18.596453
9.475899 7.269387 20.202307
16.389941 18.596453 5.663533
16.389941 18.596453 20.202307
9.475899 7.269387 5.663533
9.475899 18.596453 5.663533
16.389941 7.269387 20.202307
16.389941 7.269387 5.663533
9.475899 18.596453 20.202307
7.269387 5.663533 16.389941
18.596453 20.202307 9.475899
18.596453 5.663533 9.475899
7.269387 20.202307 16.389941
18.596453 20.202307 16.389941
7.269387 5.663533 9.475899
7.269387 20.202307 9.475899
18.596453 5.663533 16.389941
5.663533 9.475899 18.596453
20.202307 16.389941 7.269387
5.663533 16.389941 7.269387
20.202307 9.475899 18.596453
20.202307 9.475899 7.269387
5.663533 16.389941 18.596453
20.202307 16.389941 18.596453
5.663533 9.475899 7.269387
7.269387 -3.457021 18.596453
7.269387 22.408819 18.596453
18.596453 3.457021 7.269387
18.596453 29.322861 7.269387
18.596453 3.457021 18.596453
18.596453 29.322861 18.596453
7.269387 -3.457021 7.269387
7.269387 22.408819 7.269387
18.596453 -3.457021 7.269387
18.596453 22.408819 7.269387
7.269387 3.457021 18.596453
7.269387 29.322861 18.596453
7.269387 3.457021 7.269387
7.269387 29.322861 7.269387
18.596453 -3.457021 18.596453
18.596453 22.408819 18.596453
5.663533 20.202307 -3.457021
5.663533 20.202307 22.408819
20.202307 5.663533 3.457021
20.202307 5.663533 29.322861
5.663533 5.663533 3.457021
5.663533 5.663533 29.322861
20.202307 20.202307 -3.457021
20.202307 20.202307 22.408819
20.202307 5.663533 -3.457021
20.202307 5.663533 22.408819
5.663533 20.202307 3.457021
5.663533 20.202307 29.322861
20.202307 20.202307 3.457021
20.202307 20.202307 29.322861
5.663533 5.663533 -3.457021
5.663533 5.663533 22.408819
7.269387 18.596453 3.457021
7.269387 18.596453 29.322861
18.596453 7.269387 -3.457021
18.596453 7.269387 22.408819
18.596453 18.596453 -3.457021
18.596453 18.596453 22.408819
7.269387 7.269387 3.457021
7.269387 7.269387 29.322861
18.596453 7.269387 3.457021
18.596453 7.269387 29.322861
7.269387 18.596453 -3.457021
7.269387 18.596453 22.408819
7.269387 7.269387 -3.457021
7.269387 7.269387 22.408819
18.596453 18.596453 3.457021
18.596453 18.596453 29.322861
5.663533 -3.457021 5.663533
5.663533 22.408819 5.663533
20.202307 3.457021 20.202307
20.202307 29.322861 20.202307
5.663533 3.457021 20.202307
5.663533 29.322861 20.202307
20.202307 -3.457021 5.663533
20.202307 22.408819 5.663533
20.202307 -3.457021 20.202307
20.202307 22.408819 20.202307
5.663533 3.457021 5.663533
5.663533 29.322861 5.663533
20.202307 3.457021 5.663533
20.202307 29.322861 5.663533
5.663533 -3.457021 20.202307
5.663533 22.408819 20.202307
-3.457021 5.663533 20.202307
22.408819 5.663533 20.202307
3.457021 20.202307 5.663533
29.322861 20.202307 5.663533
3.457021 5.663533 5.663533
29.322861 5.663533 5.663533
-3.457021 20.202307 20.202307
22.408819 20.202307 20.202307
-3.457021 20.202307 5.663533
22.408819 20.202307 5.663533
3.457021 5.663533 20.202307
29.322861 5.663533 20.202307
3.457021 20.202307 20.202307
29.322861 20.202307 20.202307
-3.457021 5.663533 5.663533
22.408819 5.663533 5.663533
-3.457021 7.269387 7.269387
22.408819 7.269387 7.269387
3.457021 18.596453 18.596453
29.322861 18.596453 18.596453
3.457021 18.596453 7.269387
29.322861 18.596453 7.269387
-3.457021 7.269387 18.596453
22.408819 7.269387 18.596453
-3.457021 18.596453 18.596453
22.408819 18.596453 18.596453
3.457021 7.269387 7.269387
29.322861 7.269387 7.269387
3.457021 7.269387 18.596453
29.322861 7.269387 18.596453
-3.457021 18.596453 7.269387
22.408819 18.596453 7.269387
6.466460 10.051905 6.466460
19.399380 15.813935 19.399380
19.399380 15.813935 6.466460
6.466460 10.051905 19.399380
19.399380 10.051905 19.399380
6.466460 15.813935 6.466460
6.466460 15.813935 19.399380
19.399380 10.051905 6.466460
6.466460 6.466460 10.051905
19.399380 19.399380 15.813935
6.466460 19.399380 15.813935
19.399380 6.466460 10.051905
19.399380 19.399380 10.051905
6.466460 6.466460 15.813935
19.399380 6.466460 15.813935
6.466460 19.399380 10.051905
10.051905 6.466460 6.466460
15.813935 19.399380 19.399380
15.813935 6.466460 19.399380
10.051905 19.399380 6.466460
10.051905 19.399380 19.399380
15.813935 6.466460 6.466460
15.813935 19.399380 6.466460
10.051905 6.466460 19.399380
6.466460 -2.881015 19.399380
6.466460 22.984825 19.399380
19.399380 2.881015 6.466460
19.399380 28.746855 6.466460
19.399380 2.881015 19.399380
19.399380 28.746855 19.399380
6.466460 -2.881015 6.466460
6.466460 22.984825 6.466460
19.399380 -2.881015 6.466460
19.399380 22.984825 6.466460
6.466460 2.881015 19.399380
6.466460 28.746855 19.399380
6.466460 2.881015 6.466460
6.466460 28.746855 6.466460
19.399380 -2.881015 19.399380
19.399380 22.984825 19.399380
6.466460 19.399380 -2.881015
6.466460 19.399380 22.984825
19.399380 6.466460 2.881015
19.399380 6.466460 28.746855
6.466460 6.466460 2.881015
6.466460 6.466460 28.746855
19.399380 19.399380 -2.881015
19.399380 19.399380 22.984825
19.399380 6.466460 -2.881015
19.399380 6.466460 22.984825
6.466460 19.399380 2.881015
6.466460 19.399380 28.746855
19.399380 19.399380 2.881015
19.399380 19.399380 28.746855
6.466460 6.466460 -2.881015
6.466460 6.466460 22.984825
-2.881015 6.466460 19.399380
22.984825 6.466460 19.399380
2.881015 19.399380 6.466460
28.746855 19.399380 6.466460
2.881015 6.466460 6.466460
28.746855 6.466460 6.466460
-2.881015 19.399380 19.399380
22.984825 19.399380 19.399380
-2.881015 19.399380 6.466460
22.984825 19.399380 6.466460
2.881015 6.466460 19.399380
28.746855 6.466460 19.399380
2.881015 19.399380 19.399380
28.746855 19.399380 19.399380
-2.881015 6.466460 6.466460
22.984825 6.466460 6.466460
6.466460 11.541131 6.466460
19.399380 14.324709 19.399380
19.399380 14.324709 6.466460
6.466460 11.541131 19.399380
19.399380 11.541131 19.399380
6.466460 14.324709 6.466460
6.466460 14.324709 19.399380
19.399380 11.541131 6.466460
6.466460 6.466460 11.541131
19.399380 19.399380 14.324709
6.466460 19.399380 14.324709
19.399380 6.466460 11.541131
19.399380 19.399380 11.541131
6.466460 6.466460 14.324709
19.399380 6.466460 14.324709
6.466460 19.399380 11.541131
11.541131 6.466460 6.466460
14.324709 19.399380 19.399380
14.324709 6.466460 19.399380
11.541131 19.399380 6.466460
11.541131 19.399380 19.399380
14.324709 6.466460 6.466460
14.324709 19.399380 6.466460
11.541131 6.466460 19.399380
6.466460 -1.391789 19.399380
6.466460 24.474051 19.399380
19.399380 1.391789 6.466460
19.399380 27.257629 6.466460
19.399380 1.391789 19.399380
19.399380 27.257629 19.399380
6.466460 -1.391789 6.466460
6.466460 24.474051 6.466460
19.399380 -1.391789 6.466460
19.399380 24.474051 6.466460
6.466460 1.391789 19.399380
6.466460 27.257629 19.399380
6.466460 1.391789 6.466460
6.466460 27.257629 6.466460
19.399380 -1.391789 19.399380
19.399380 24.474051 19.399380
6.466460 19.399380 -1.391789
6.466460 19.399380 24.474051
19.399380 6.466460 1.391789
19.399380 6.466460 27.257629
6.466460 6.466460 1.391789
6.466460 6.466460 27.257629
19.399380 19.399380 -1.391789
19.399380 19.399380 24.474051
19.399380 6.466460 -1.391789
19.399380 6.466460 24.474051
6.466460 19.399380 1.391789
6.466460 19.399380 27.257629
19.399380 19.399380 1.391789
19.399380 19.399380 27.257629
6.466460 6.466460 -1.391789
6.466460 6.466460 24.474051
-1.391789 6.466460 19.399380
24.474051 6.466460 19.399380
1.391789 19.399380 6.466460
27.257629 19.399380 6.466460
1.391789 6.466460 6.466460
27.257629 6.466460 6.466460
-1.391789 19.399380 19.399380
24.474051 19.399380 19.399380
-1.391789 19.399380 6.466460
24.474051 19.399380 6.466460
1.391789 6.466460 19.399380
27.257629 6.466460 19.399380
1.391789 19.399380 19.399380
27.257629 19.399380 19.399380
-1.391789 6.466460 6.466460
24.474051 6.466460 6.466460
7.324352 12.239172 5.608568
18.541488 13.626668 20.257272
18.541488 13.626668 5.608568
7.324352 12.239172 20.257272
18.541488 12.239172 20.257272
7.324352 13.626668 5.608568
7.324352 13.626668 20.257272
18.541488 12.239172 5.608568
5.608568 7.324352 12.239172
20.257272 18.541488 13.626668
5.608568 18.541488 13.626668
20.257272 7.324352 12.239172
20.257272 18.541488 12.239172
5.608568 7.324352 13.626668
20.257272 7.324352 13.626668
5.608568 18.541488 12.239172
12.239172 5.608568 7.324352
13.626668 20.257272 18.541488
13.626668 5.608568 18.541488
12.239172 20.257272 7.324352
12.239172 20.257272 18.541488
13.626668 5.608568 7.324352
13.626668 20.257272 7.324352
12.239172 5.608568 18.541488
12.239172 7.324352 20.257272
13.626668 18.541488 5.608568
13.626668 18.541488 20.257272
12.239172 7.324352 5.608568
12.239172 18.541488 5.608568
13.626668 7.324352 20.257272
13.626668 7.324352 5.608568
12.239172 18.541488 20.257272
7.324352 5.608568 13.626668
18.541488 20.257272 12.239172
18.541488 5.608568 12.239172
7.324352 20.257272 13.626668
18.541488 20.257272 13.626668
7.324352 5.608568 12.239172
7.324352 20.257272 12.239172
18.541488 5.608568 13.626668
5.608568 12.239172 18.541488
20.257272 13.626668 7.324352
5.608568 13.626668 7.324352
20.257272 12.239172 18.541488
20.257272 12.239172 7.324352
5.608568 13.626668 18.541488
20.257272 13.626668 18.541488
5.608568 12.239172 7.324352
7.324352 -0.693748 18.541488
7.324352 25.172092 18.541488
18.541488 0.693748 7.324352
18.541488 26.559588 7.324352
18.541488 0.693748 18.541488
18.541488 26.559588 18.541488
7.324352 -0.693748 7.324352
7.324352 25.172092 7.324352
18.541488 -0.693748 7.324352
18.541488 25.172092 7.324352
7.324352 0.693748 18.541488
7.324352 26.559588 18.541488
7.324352 0.693748 7.324352
7.324352 26.559588 7.324352
18.541488 -0.693748 18.541488
18.541488 25.172092 18.541488
5.608568 20.257272 -0.693748
5.608568 20.257272 25.172092
20.257272 5.608568 0.693748
20.257272 5.608568 26.559588
5.608568 5.608568 0.693748
5.608568 5.608568 26.559588
20.257272 20.257272 -0.693748
20.257272 20.257272 25.172092
20.257272 5.608568 -0.693748
20.257272 5.608568 25.172092
5.608568 20.257272 0.693748
5.608568 20.257272 26.559588
20.257272 20.257272 0.693748
20.257272 20.257272 26.559588
5.608568 5.608568 -0.693748
5.608568 5.608568 25.172092
7.324352 18.541488 0.693748
7.324352 18.541488 26.559588
18.541488 7.324352 -0.693748
18.541488 7.324352 25.172092
18.541488 18.541488 -0.693748
18.541488 18.541488 25.172092
7.324352 7.324352 0.693748
7.324352 7.324352 26.559588
18.541488 7.324352 0.693748
18.541488 7.324352 26.559588
7.324352 18.541488 -0.693748
7.324352 18.541488 25.172092
7.324352 7.324352 -0.693748
7.324352 7.324352 25.172092
18.541488 18.541488 0.693748
18.541488 18.541488 26.559588
5.608568 -0.693748 5.608568
5.608568 25.172092 5.608568
20.257272 0.693748 20.257272
20.257272 26.559588 20.257272
5.608568 0.693748 20.257272
5.608568 26.559588 20.257272
20.257272 -0.693748 5.608568
20.257272 25.172092 5.608568
20.257272 -0.693748 20.257272
20.257272 25.172092 20.257272
5.608568 0.693748 5.608568
5.608568 26.559588 5.608568
20.257272 0.693748 5.608568
20.257272 26.559588 5.608568
5.608568 -0.693748 20.257272
5.608568 25.172092 20.257272
-0.693748 5.608568 20.257272
25.172092 5.608568 20.257272
0.693748 20.257272 5.608568
26.559588 20.257272 5.608568
0.693748 5.608568 5.608568
26.559588 5.608568 5.608568
-0.693748 20.257272 20.257272
25.172092 20.257272 20.257272
-0.693748 20.257272 5.608568
25.172092 20.257272 5.608568
0.693748 5.608568 20.257272
26.559588 5.608568 20.257272
0.693748 20.257272 20.257272
26.559588 20.257272 20.257272
-0.693748 5.608568 5.608568
25.172092 5.608568 5.608568
-0.693748 7.324352 7.324352
25.172092 7.324352 7.324352
0.693748 18.541488 18.541488
26.559588 18.541488 18.541488
0.693748 18.541488 7.324352
26.559588 18.541488 7.324352
-0.693748 7.324352 18.541488
25.172092 7.324352 18.541488
-0.693748 18.541488 18.541488
25.172092 18.541488 18.541488
0.693748 7.324352 7.324352
26.559588 7.324352 7.324352
0.693748 7.324352 18.541488
26.559588 7.324352 18.541488
-0.693748 18.541488 7.324352
25.172092 18.541488 7.324352
7.984526 11.670408 4.948394
17.881314 14.195432 20.917446
17.881314 14.195432 4.948394
7.984526 11.670408 20.917446
17.881314 11.670408 20.917446
7.984526 14.195432 4.948394
7.984526 14.195432 20.917446
17.881314 11.670408 4.948394
4.948394 7.984526 11.670408
20.917446 17.881314 14.195432
4.948394 17.881314 14.195432
20.917446 7.984526 11.670408
20.917446 17.881314 11.670408
4.948394 7.984526 14.195432
20.917446 7.984526 14.195432
4.948394 17.881314 11.670408
11.670408 4.948394 7.984526
14.195432 20.917446 17.881314
14.195432 4.948394 17.881314
11.670408 20.917446 7.984526
11.670408 20.917446 17.881314
14.195432 4.948394 7.984526
14.195432 20.917446 7.984526
11.670408 4.948394 17.881314
11.670408 7.984526 20.917446
14.195432 17.881314 4.948394
14.195432 17.881314 20.917446
11.670408 7.984526 4.948394
11.670408 17.881314 4.948394
14.195432 7.984526 20.917446
14.195432 7.984526 4.948394
11.670408 17.881314 20.917446
7.984526 4.948394 14.195432
17.881314 20.917446 11.670408
17.881314 4.948394 11.670408
7.984526 20.917446 14.195432
17.881314 20.917446 14.195432
7.984526 4.948394 11.670408
7.984526 20.917446 11.670408
17.881314 4.948394 14.195432
4.948394 11.670408 17.881314
20.917446 14.195432 7.984526
4.948394 14.195432 7.984526
20.917446 11.670408 17.881314
20.917446 11.670408 7.984526
4.948394 14.195432 17.881314
20.917446 14.195432 17.881314
4.948394 11.670408 7.984526
7.984526 -1.262512 17.881314
7.984526 24.603328 17.881314
17.881314 1.262512 7.984526
17.881314 27.128352 7.984526
17.881314 1.262512 17.881314
17.881314 27.128352 17.881314
7.984526 -1.262512 7.984526
7.984526 24.603328 7.984526
17.881314 -1.262512 7.984526
17.881314 24.603328 7.984526
7.984526 1.262512 17.881314
7.984526 27.128352 17.881314
7.984526 1.262512 7.984526
7.984526 27.128352 7.984526
17.881314 -1.262512 17.881314
17.881314 24.603328 17.881314
4.948394 20.917446 -1.262512
4.948394 20.917446 24.603328
20.917446 4.948394 1.262512
20.917446 4.948394 27.128352
4.948394 4.948394 1.262512
4.948394 4.948394 27.128352
20.917446 20.917446 -1.262512
20.917446 20.917446 24.603328
20.917446 4.948394 -1.262512
20.917446 4.948394 24.603328
4.948394 20.917446 1.262512
4.948394 20.917446 27.128352
20.917446 20.917446 1.262512
20.917446 20.917446 27.128352
4.948394 4.948394 -1.262512
4.948394 4.948394 24.603328
7.984526 17.881314 1.262512
7.984526 17.881314 27.128352
17.881314 7.984526 -1.262512
17.881314 7.984526 24.603328
17.881314 17.881314 -1.262512
17.881314 17.881314 24.603328
7.984526 7.984526 1.262512
7.984526 7.984526 27.128352
17.881314 7.984526 1.262512
17.881314 7.984526 27.128352
7.984526 17.881314 -1.262512
7.984526 17.881314 24.603328
7.984526 7.984526 -1.262512
7.984526 7.984526 24.603328
17.881314 17.881314 1.262512
17.881314 17.881314 27.128352
4.948394 -1.262512 4.948394
4.948394 24.603328 4.948394
20.917446 1.262512 20.917446
20.917446 27.128352 20.917446
4.948394 1.262512 20.917446
4.948394 27.128352 20.917446
20.917446 -1.262512 4.948394
20.917446 24.603328 4.948394
20.917446 -1.262512 20.917446
20.917446 24.603328 20.917446
4.948394 1.262512 4.948394
4.948394 27.128352 4.948394
20.917446 1.262512 4.948394
20.917446 27.128352 4.948394
4.948394 -1.262512 20.917446
4.948394 24.603328 20.917446
-1.262512 4.948394 20.917446
24.603328 4.948394 20.917446
1.262512 20.917446 4.948394
27.128352 20.917446 4.948394
1.262512 4.948394 4.948394
27.128352 4.948394 4.948394
-1.262512 20.917446 20.917446
24.603328 20.917446 20.917446
-1.262512 20.917446 4.948394
24.603328 20.917446 4.948394
1.262512 4.948394 20.917446
27.128352 4.948394 20.917446
1.262512 20.917446 20.917446
27.128352 20.917446 20.917446
-1.262512 4.948394 4.948394
24.603328 4.948394 4.948394
-1.262512 7.984526 7.984526
24.603328 7.984526 7.984526
1.262512 17.881314 17.881314
27.128352 17.881314 17.881314
1.262512 17.881314 7.984526
27.128352 17.881314 7.984526
-1.262512 7.984526 17.881314
24.603328 7.984526 17.881314
-1.262512 17.881314 17.881314
24.603328 17.881314 17.881314
1.262512 7.984526 7.984526
27.128352 7.984526 7.984526
1.262512 7.984526 17.881314
27.128352 7.984526 17.881314
-1.262512 17.881314 7.984526
24.603328 17.881314 7.984526
LINES 704 2112
2 0 32
2 0 40
2 0 67
2 0 126
2 1 33
2 1 41
2 1 66
2 1 125
2 2 34
2 2 42
2 2 65
2 2 134
2 3 35
2 3 43
2 3 64
2 3 133
2 4 36
2 4 44
2 4 69
2 4 123
2 5 37
2 5 45
2 5 68
2 5 120
2 6 38
2 6 46
2 6 71
2 6 131
2 7 39
2 7 47
2 7 70
2 7 128
2 8 32
2 8 48
2 8 87
2 8 178
2 9 33
2 9 49
2 9 86
2 9 177
2 10 38
2 10 50
2 10 85
2 10 170
2 11 39
2 11 51
2 11 84
2 11 169
2 12 34
2 12 52
2 12 81
2 12 183
2 13 35
2 13 53
2 13 80
2 13 180
2 14 36
2 14 54
2 14 83
2 14 175
2 15 37
2 15 55
2 15 82
2 15 172
2 16 32
2 16 56
2 16 77
2 16 100
2 17 33
2 17 57
2 17 76
2 17 103
2 18 36
2 18 58
2 18 79
2 18 92
2 19 37
2 19 59
2 19 78
2 19 95
2 20 38
2 20 60
2 20 75
2 20 89
2 21 39
2 21 61
2 21 74
2 21 90
2 22 34
2 22 62
2 22 73
2 22 97
2 23 35
2 23 63
2 23 72
2 23 98
2 24 38
2 24 105
2 24 151
2 24 164
2 25 39
2 25 106
2 25 148
2 25 167
2 26 32
2 26 108
2 26 146
2 26 156
2 27 33
2 27 111
2 27 145
2 27 159
2 28 36
2 28 113
2 28 138
2 28 153
2 29 37
2 29 114
2 29 137
2 29 154
2 30 34
2 30 116
2 30 143
2 30 161
2 31 35
2 31 119
2 31 140
2 31 162
2 40 184
2 41 185
2 42 186
2 43 187
2 44 188
2 45 189
2 46 190
2 47 191
2 48 192
2 49 193
2 50 194
2 51 195
2 52 196
2 53 197
2 54 198
2 55 199
2 56 200
2 57 201
2 58 202
2 59 203
2 60 204
2 61 205
2 62 206
2 63 207
2 64 207
2 65 206
2 66 201
2 67 200
2 68 203
2 69 202
2 70 205
2 71 204
2 72 197
2 73 196
2 74 195
2 75 194
2 76 193
2 77 192
2 78 199
2 79 198
2 80 187
2 81 186
2 82 189
2 83 188
2 84 191
2 85 190
2 86 185
2 87 184
2 88 208
2 89 209
2 90 210
2 91 211
2 92 212
2 93 213
2 94 214
2 95 215
2 96 216
2 97 217
2 98 218
2 99 219
2 100 220
2 101 221
2 102 222
2 103 223
2 104 224
2 105 225
2 106 226
2 107 227
2 108 228
2 109 229
2 110 230
2 111 231
2 112 232
2 113 233
2 114 234
2 115 235
2 116 236
2 117 237
2 118 238
2 119 239
2 120 234
2 121 235
2 122 232
2 123 233
2 124 230
2 125 231
2 126 228
2 127 229
2 128 226
2 129 227
2 130 224
2 131 225
2 132 238
2 133 239
2 134 236
2 135 237
2 136 214
2 137 215
2 138 212
2 139 213
2 140 218
2 141 219
2 142 216
2 143 217
2 144 222
2 145 223
2 146 220
2 147 221
2 148 210
2 149 211
2 150 208
2 151 209
2 152 240
2 153 241
2 154 242
2 155 243
2 156 244
2 157 245
2 158 246
2 159 247
2 160 248
2 161 249
2 162 250
2 163 251
2 164 252
2 165 253
2 166 254
2 167 255
2 168 254
2 169 255
2 170 252
2 171 253
2 172 242
2 173 243
2 174 240
2 175 241
2 176 246
2 177 247
2 178 244
2 179 245
2 180 250
2 181 251
2 182 248
2 183 249
2 184 256
2 185 257
2 186 258
2 187 259
2 188 260
2 189 261
2 190 262
2 191 263
2 192 264
2 193 265
2 194 266
2 195 267
2 196 268
2 197 269
2 198 270
2 199 271
2 200 272
2 201 273
2 202 274
2 203 275
2 204 276
2 205 277
2 206 278
2 207 279
2 208 280
2 209 281
2 210 282
2 211 283
2 212 284
2 213 285
2 214 286
2 215 287
2 216 288
2 217 289
2 218 290
2 219 291
2 220 292
2 221 293
2 222 294
2 223 295
2 224 296
2 225 297
2 226 298
2 227 299
2 228 300
2 229 301
2 230 302
2 231 303
2 232 304
2 233 305
2 234 306
2 235 307
2 236 308
2 237 309
2 238 310
2 239 311
2 240 312
2 241 313
2 242 314
2 243 315
2 244 316
2 245 317
2 246 318
2 247 319
2 248 320
2 249 321
2 250 322
2 251 323
2 252 324
2 253 325
2 254 326
2 255 327
2 256 328
2 256 375
2 257 329
2 257 374
2 258 330
2 258 369
2 259 331
2 259 368
2 260 332
2 260 371
2 261 333
2 261 370
2 262 334
2 262 373
2 263 335
2 263 372
2 264 336
2 264 365
2 265 337
2 265 364
2 266 338
2 266 363
2 267 339
2 267 362
2 268 340
2 268 361
2 269 341
2 269 360
2 270 342
2 270 367
2 271 343
2 271 366
2 272 344
2 272 355
2 273 345
2 273 354
2 274 346
2 274 357
2 275 347
2 275 356
2 276 348
2 276 359
2 277 349
2 277 358
2 278 350
2 278 353
2 279 351
2 279 352
2 280 376
2 280 438
2 281 377
2 281 439
2 282 378
2 282 436
2 283 379
2 283 437
2 284 380
2 284 426
2 285 381
2 285 427
2 286 382
2 286 424
2 287 383
2 287 425
2 288 384
2 288 430
2 289 385
2 289 431
2 290 386
2 290 428
2 291 387
2 291 429
2 292 388
2 292 434
2 293 389
2 293 435
2 294 390
2 294 432
2 295 391
2 295 433
2 296 392
2 296 418
2 297 393
2 297 419
2 298 394
2 298 416
2 299 395
2 299 417
2 300 396
2 300 414
2 301 397
2 301 415
2 302 398
2 302 412
2 303 399
2 303 413
2 304 400
2 304 410
2 305 401
2 305 411
2 306 402
2 306 408
2 307 403
2 307 409
2 308 404
2 308 422
2 309 405
2 309 423
2 310 406
2 310 420
2 311 407
2 311 421
2 312 440
2 312 462
2 313 441
2 313 463
2 314 442
2 314 460
2 315 443
2 315 461
2 316 444
2 316 466
2 317 445
2 317 467
2 318 446
2 318 464
2 319 447
2 319 465
2 320 448
2 320 470
2 321 449
2 321 471
2 322 450
2 322 468
2 323 451
2 323 469
2 324 452
2 324 458
2 325 453
2 325 459
2 326 454
2 326 456
2 327 455
2 327 457
2 328 333
2 328 472
2 329 332
2 329 473
2 330 335
2 330 474
2 331 334
2 331 475
2 332 476
2 333 477
2 334 478
2 335 479
2 336 341
2 336 480
2 337 340
2 337 481
2 338 343
2 338 482
2 339 342
2 339 483
2 340 484
2 341 485
2 342 486
2 343 487
2 344 349
2 344 488
2 345 348
2 345 489
2 346 351
2 346 490
2 347 350
2 347 491
2 348 492
2 349 493
2 350 494
2 351 495
2 352 357
2 352 496
2 353 356
2 353 497
2 354 359
2 354 498
2 355 358
2 355 499
2 356 500
2 357 501
2 358 502
2 359 503
2 360 365
2 360 504
2 361 364
2 361 505
2 362 367
2 362 506
2 363 366
2 363 507
2 364 508
2 365 509
2 366 510
2 367 511
2 368 373
2 368 512
2 369 372
2 369 513
2 370 375
2 370 514
2 371 374
2 371 515
2 372 516
2 373 517
2 374 518
2 375 519
2 376 386
2 376 520
2 377 387
2 377 521
2 378 384
2 378 522
2 379 385
2 379 523
2 380 390
2 380 524
2 381 391
2 381 525
2 382 388
2 382 526
2 383 389
2 383 527
2 384 528
2 385 529
2 386 530
2 387 531
2 388 532
2 389 533
2 390 534
2 391 535
2 392 402
2 392 536
2 393 403
2 393 537
2 394 400
2 394 538
2 395 401
2 395 539
2 396 406
2 396 540
2 397 407
2 397 541
2 398 404
2 398 542
2 399 405
2 399 543
2 400 544
2 401 545
2 402 546
2 403 547
2 404 548
2 405 549
2 406 550
2 407 551
2 408 418
2 408 552
2 409 419
2 409 553
2 410 416
2 410 554
2 411 417
2 411 555
2 412 422
2 412 556
2 413 423
2 413 557
2 414 420
2 414 558
2 415 421
2 415 559
2 416 560
2 417 561
2 418 562
2 419 563
2 420 564
2 421 565
2 422 566
2 423 567
2 424 434
2 424 568
2 425 435
2 425 569
2 426 432
2 426 570
2 427 433
2 427 571
2 428 438
2 428 572
2 429 439
2 429 573
2 430 436
2 430 574
2 431 437
2 431 575
2 432 576
2 433 577
2 434 578
2 435 579
2 436 580
2 437 581
2 438 582
2 439 583
2 440 450
2 440 584
2 441 451
2 441 585
2 442 448
2 442 586
2 443 449
2 443 587
2 444 454
2 444 588
2 445 455
2 445 589
2 446 452
2 446 590
2 447 453
2 447 591
2 448 592
2 449 593
2 450 594
2 451 595
2 452 596
2 453 597
2 454 598
2 455 599
2 456 466
2 456 600
2 457 467
2 457 601
2 458 464
2 458 602
2 459 465
2 459 603
2 460 470
2 460 604
2 461 471
2 461 605
2 462 468
2 462 606
2 463 469
2 463 607
2 464 608
2 465 609
2 466 610
2 467 611
2 468 612
2 469 613
2 470 614
2 471 615
